<svg width="24" height="24" viewBox="0 0 24 24" fill="none" xmlns="http://www.w3.org/2000/svg">
<path d="M13.75 22C13.75 22.966 12.967 23.75 12 23.75C11.033 23.75 10.25 22.966 10.25 22C10.25 21.034 11.033 20.25 12 20.25C12.967 20.25 13.75 21.034 13.75 22ZM12 0C10.896 0 10 0.896 10 2C10 3.104 10.896 4 12 4C13.104 4 14 3.104 14 2C14 0.896 13.104 0 12 0ZM22 10.75C22.689 10.75 23.249 11.311 23.249 12C23.249 12.69 22.689 13.25 22 13.25C21.31 13.25 20.751 12.691 20.751 12C20.751 11.311 21.31 10.75 22 10.75ZM0 12C0 13.105 0.896 14 2 14C3.104 14 4 13.105 4 12C4 10.896 3.104 10 2 10C0.896 10 0 10.896 0 12ZM19 4C19.551 4 20 4.449 20 5C20 5.553 19.551 6.002 19 6C18.449 6 18 5.553 18 5.002C18 4.449 18.449 4 19 4ZM19 17.5C19.828 17.5 20.5 18.172 20.5 19C20.5 19.828 19.828 20.501 18.998 20.5C18.172 20.5 17.5 19.829 17.5 19.001C17.5 18.172 18.172 17.5 19 17.5ZM5 3C6.104 3 7 3.896 7 5C7 6.104 6.104 7 4.999 7C3.896 7 3 6.105 3 5C3 3.895 3.896 3 5 3ZM5 17C6.104 17 7 17.896 7 19C7 20.104 6.104 21 4.999 21C3.896 21 3 20.105 3 19C3 17.895 3.896 17 5 17Z" fill="#3D3C3C"/>
</svg>
