<svg width="24" height="24" viewBox="0 0 24 24" fill="none" xmlns="http://www.w3.org/2000/svg">
<path fill-rule="evenodd" clip-rule="evenodd" d="M21.826 9H19.74C19.911 8.513 20.002 8.043 20.002 7.59C20.002 5.264 18.184 3.814 15.978 4.017C13.297 4.264 11.46 7.727 11 8.501C10.473 7.638 8.739 4.263 6.019 4.007C3.909 3.808 2 5.188 2 7.589C2 10.698 6.347 14.673 11.001 19.204C12.161 18.077 13.286 16.996 14.325 15.961L15.295 17.818C13.977 19.12 12.526 20.504 11.001 21.999C4.837 15.962 0 11.797 0 7.596C0 4.302 2.462 2.07 5.674 2C7.837 1.991 9.799 2.957 11.001 4.952C12.178 2.996 14.147 2.01 16.254 2.01C19.318 2.01 22 4.125 22 7.605C22 8.069 21.94 8.533 21.826 9V9ZM10.732 13C10.386 13.598 9.74 14 9 14C7.896 14 7 13.104 7 12C7 10.896 7.896 10 9 10C9.74 10 10.386 10.402 10.732 11H11.954L13.834 8.29C13.974 8.088 14.21 7.975 14.456 7.991C14.701 8.007 14.92 8.152 15.032 8.371L17.302 12.808L18.115 11.358C18.239 11.137 18.472 11 18.726 11H24V13H19.487L17.728 15.908C17.596 16.127 17.355 16.256 17.099 16.245C16.844 16.235 16.615 16.085 16.501 15.856L14.245 11.297L13.256 12.703C13.125 12.889 12.911 13 12.683 13H10.732V13Z" fill="#3D3C3C"/>
</svg>
