<svg width="24" height="24" viewBox="0 0 24 24" fill="none" xmlns="http://www.w3.org/2000/svg">
<g clip-path="url(#clip0)">
<path d="M15 12C15 10.343 13.656 9 12 9C10.344 9 9 10.343 9 12C9 13.304 9.838 14.403 11 14.816V24H13V14.816C14.162 14.403 15 13.304 15 12ZM6.718 12C6.718 10.209 7.605 8.603 9 7.502L7.519 6C5.659 7.467 4.479 9.608 4.479 12C4.479 14.392 5.659 16.533 7.519 18L9 16.498C7.604 15.397 6.718 13.791 6.718 12ZM16.481 6L15 7.502C16.396 8.603 17.282 10.209 17.282 12C17.282 13.791 16.396 15.397 15 16.498L16.481 18C18.341 16.533 19.521 14.392 19.521 12C19.521 9.608 18.342 7.467 16.481 6V6ZM24 12C24 17.589 20.173 22.272 15 23.606V21.538C19.053 20.261 22 16.469 22 11.999C22 6.485 17.514 1.999 12 1.999C6.486 1.999 2 6.486 2 12C2 16.469 4.948 20.261 9 21.539V23.607C3.828 22.272 0 17.589 0 12C0 5.373 5.373 0 12 0C18.627 0 24 5.373 24 12V12Z" fill="#3D3C3C"/>
</g>
<defs>
<clipPath id="clip0">
<rect width="24" height="24" fill="white"/>
</clipPath>
</defs>
</svg>
